# xmcd CD database file
#
# Track frame offsets:
#	150
#	26675
#	52663
#
# Disc length: 1054 seconds
#
# Revision: 2
# Processed by: cddbd v1.5.1PL2 Copyright (c) Steve Scherf et al.
# Submitted via: CDex 1.70beta2
#
DISCID=18041c03
DTITLE=Chage and Aska - めぐり逢い (Single)
DYEAR=2000
DGENRE=JPop
TTITLE0=めぐり逢い
TTITLE1=濡れた夢
TTITLE2=めぐり逢い（カラオケバージョン）
EXTD=YEAR: 2000
EXTT0=
EXTT1=
EXTT2=
PLAYORDER=
